# xmcd
#
# Track frame offsets:
#	150
#	19399
#	30547
#	44262
#	61642
#	75886
#	88581
#	102513
#	125221
#	140341
#	156287
#	168018
#	182423
#	199237
#
# Disc length: 2842 seconds
#
# Revision: 1
# Processed by: cddbd v1.5.2PL0 Copyright (c) Steve Scherf et al.
# Submitted via: audiograbber 1.83.01
#
DISCID=ad0b180e
DTITLE=Gary Ellis - Man in the Hat
DYEAR=1900
DGENRE=Country;Ballads
TTITLE0=Cottage in the Country
TTITLE1=Listen to the Children
TTITLE2=If I win Tatslotto
TTITLE3=God please forgive Me
TTITLE4=The names of our Heroes
TTITLE5=Soldiers last Letter
TTITLE6=Leave him in the Longyard
TTITLE7=Sweet baby Mine
TTITLE8=Your world is what you make It
TTITLE9=The pearl of them All
TTITLE10=Stolen Moments
TTITLE11=Our Anniversary
TTITLE12=My dog and Me
TTITLE13=Srl Lankas heroes
EXTD=
EXTT0=
EXTT1=
EXTT2=
EXTT3=
EXTT4=
EXTT5=
EXTT6=
EXTT7=
EXTT8=
EXTT9=
EXTT10=
EXTT11=
EXTT12=
EXTT13=
PLAYORDER=
